<svg width="24" height="24" viewBox="0 0 24 24" fill="none" xmlns="http://www.w3.org/2000/svg">
<path d="M15.0001 9.00009L9.00009 15.0001M15.0001 15.0001H14.9901M9.01009 9.00009H9.00009M7.69209 19.6161C8.28209 19.6161 8.57809 19.6161 8.84709 19.7161C8.88509 19.7301 8.92209 19.7454 8.95809 19.7621C9.21909 19.8821 9.42809 20.0901 9.84609 20.5081C10.8081 21.4701 11.2891 21.9511 11.8801 21.9961C11.9601 22.0021 12.0401 22.0021 12.1201 21.9961C12.7111 21.9511 13.1921 21.4701 14.1541 20.5081C14.5721 20.0901 14.7811 19.8821 15.0421 19.7621C15.0781 19.7454 15.1148 19.7301 15.1521 19.7161C15.4221 19.6161 15.7171 19.6161 16.3081 19.6161H16.4181C17.9251 19.6161 18.6791 19.6161 19.1481 19.1481C19.6171 18.6801 19.6161 17.9251 19.6161 16.4181V16.3081C19.6161 15.7181 19.6161 15.4221 19.7161 15.1531C19.7301 15.1151 19.7454 15.0781 19.7621 15.0421C19.8821 14.7811 20.0901 14.5721 20.5081 14.1541C21.4701 13.1921 21.9511 12.7111 21.9961 12.1201C22.0021 12.0401 22.0021 11.9601 21.9961 11.8801C21.9511 11.2891 21.4701 10.8081 20.5081 9.84609C20.0901 9.42809 19.8821 9.21909 19.7621 8.95809L19.7161 8.84809C19.6161 8.57809 19.6161 8.28309 19.6161 7.69209V7.58209C19.6161 6.07509 19.6161 5.32109 19.1481 4.85209C18.6801 4.38309 17.9251 4.38409 16.4181 4.38409H16.3081C15.7181 4.38409 15.4221 4.38409 15.1531 4.28409L15.0421 4.23809C14.7811 4.11809 14.5721 3.91009 14.1541 3.49209C13.1921 2.53009 12.7111 2.04909 12.1201 2.00409C12.0402 1.99929 11.96 1.99929 11.8801 2.00409C11.2891 2.04909 10.8081 2.53009 9.84609 3.49209C9.42809 3.91009 9.21909 4.11909 8.95809 4.23809L8.84809 4.28409C8.57809 4.38409 8.28309 4.38409 7.69209 4.38409H7.58209C6.07509 4.38409 5.32109 4.38409 4.85209 4.85209C4.38309 5.32009 4.38409 6.07509 4.38409 7.58209V7.69209C4.38409 8.28209 4.38409 8.57809 4.28409 8.84709C4.26942 8.88509 4.25409 8.92209 4.23809 8.95809C4.11809 9.21909 3.91009 9.42809 3.49209 9.84609C2.53009 10.8081 2.04909 11.2891 2.00409 11.8801C1.99929 11.96 1.99929 12.0402 2.00409 12.1201C2.04909 12.7111 2.53009 13.1921 3.49209 14.1541C3.91009 14.5721 4.11909 14.7811 4.23809 15.0421C4.25476 15.0781 4.27009 15.1148 4.28409 15.1521C4.38409 15.4221 4.38409 15.7171 4.38409 16.3081V16.4181C4.38409 17.9251 4.38409 18.6791 4.85209 19.1481C5.32009 19.6171 6.07509 19.6161 7.58209 19.6161H7.69209Z" stroke="white" stroke-width="1.5" stroke-linecap="round" stroke-linejoin="round"/>
</svg>
